<?xml version="1.0" encoding="UTF-8" standalone="no"?>
<!-- Generator: Adobe Illustrator 21.0.2, SVG Export Plug-In . SVG Version: 6.00 Build 0)  -->

<svg
   xmlns:dc="http://purl.org/dc/elements/1.1/"
   xmlns:cc="http://creativecommons.org/ns#"
   xmlns:rdf="http://www.w3.org/1999/02/22-rdf-syntax-ns#"
   xmlns:svg="http://www.w3.org/2000/svg"
   xmlns="http://www.w3.org/2000/svg"
   xmlns:sodipodi="http://sodipodi.sourceforge.net/DTD/sodipodi-0.dtd"
   xmlns:inkscape="http://www.inkscape.org/namespaces/inkscape"
   version="1.1"
   id="Layer_1"
   x="0px"
   y="0px"
   viewBox="0 0 350 76.3"
   style="enable-background:new 0 0 350 76.3;"
   xml:space="preserve"
   sodipodi:docname="pma-logo-day.svg"
   inkscape:version="0.92.1 r15371"><metadata
   id="metadata119"><rdf:RDF><cc:Work
       rdf:about=""><dc:format>image/svg+xml</dc:format><dc:type
         rdf:resource="http://purl.org/dc/dcmitype/StillImage" /><dc:title></dc:title></cc:Work></rdf:RDF></metadata><defs
   id="defs117" /><sodipodi:namedview
   pagecolor="#ffffff"
   bordercolor="#666666"
   borderopacity="1"
   objecttolerance="10"
   gridtolerance="10"
   guidetolerance="10"
   inkscape:pageopacity="0"
   inkscape:pageshadow="2"
   inkscape:window-width="1280"
   inkscape:window-height="1001"
   id="namedview115"
   showgrid="false"
   inkscape:snap-text-baseline="true"
   inkscape:zoom="1.84"
   inkscape:cx="208.71147"
   inkscape:cy="19.532404"
   inkscape:window-x="-8"
   inkscape:window-y="-8"
   inkscape:window-maximized="1"
   inkscape:current-layer="Layer_1" />
<style
   type="text/css"
   id="style2">
	.st0{fill:#454B55;}
	.st1{fill:#407EC9;}
	.st2{fill:#FFFFFF;}
</style>

<g
   id="g96"
   transform="translate(-1.0067114,-6.7114094)">
	<path
   class="st0"
   d="m 102.9,24 c 0,2.3 -1.6,4 -4.7,4 -0.8,0 -1.5,0 -2,-0.1 v 4.5 c -0.3,0.1 -0.5,0.1 -0.8,0.1 -0.3,0 -0.5,0 -0.7,-0.1 V 20.7 c 0.9,-0.2 2,-0.4 3.5,-0.4 3.1,0 4.7,1.5 4.7,3.7 z m -1.6,0 c 0,-1.4 -1,-2.3 -3.1,-2.3 -0.7,0 -1.4,0.1 -2,0.1 v 4.8 c 0.5,0.1 1.2,0.1 2,0.1 2.2,-0.1 3.1,-1.1 3.1,-2.7 z"
   id="path44"
   inkscape:connector-curvature="0"
   style="fill:#454b55" />
	
	
	
	
	
	
	
	
	
	
	
	<path
   class="st0"
   d="m 103.97393,26.825094 c 0,-3.6 2.6,-6.2 5.9,-6.2 1.6,0 2.8,0.5 3.6,1.1 -0.1,0.4 -0.4,0.9 -0.8,1.2 -0.8,-0.6 -1.6,-0.8 -2.8,-0.8 -2.4,0 -4.4,1.8 -4.4,4.8 0,3 1.9,4.8 4.3,4.8 1.6,0 2.4,-0.4 3,-1 0.5,0.3 0.7,0.6 0.8,1.1 -0.7,0.6 -1.8,1.2 -3.8,1.2 -3.4,0 -5.8,-2.6 -5.8,-6.2 z"
   id="path68"
   inkscape:connector-curvature="0"
   style="fill:#454b55" />
	
	
	
	
	
	
	
	
	
	
	
	
	<g
   id="g3799"
   transform="translate(-148.13012,0.59440312)"><path
     id="path80"
     d="m 263.3,26.9 c 0,-2.9 0.7,-5.4 2.2,-7.9 0.4,-0.1 1,0.1 1.2,0.5 -1,2.1 -1.6,4.5 -1.6,7.4 0,2.9 0.6,5.3 1.6,7.4 -0.1,0.4 -0.8,0.6 -1.2,0.5 -1.5,-2.5 -2.2,-5 -2.2,-7.9 z"
     class="st0"
     inkscape:connector-curvature="0"
     style="fill:#454b55" /><path
     id="path82"
     d="m 269.4,27.7 v -7.2 c 0.3,-0.1 0.5,-0.1 0.8,-0.1 0.3,0 0.5,0 0.8,0.1 v 7.2 c 0,2 1.1,3.5 3.2,3.5 2.2,0 3.2,-1.4 3.2,-3.5 v -7.2 c 0.3,-0.1 0.5,-0.1 0.8,-0.1 0.2,0 0.5,0 0.7,0.1 v 7.2 c 0,3.2 -1.9,4.9 -4.7,4.9 -2.9,0 -4.8,-1.7 -4.8,-4.9 z"
     class="st0"
     inkscape:connector-curvature="0"
     style="fill:#454b55" /><path
     id="path84"
     d="m 280.4,31.4 c 0,-0.6 0.5,-1.2 1.2,-1.2 0.6,0 1.2,0.5 1.2,1.2 0,0.6 -0.5,1.2 -1.2,1.2 -0.7,0 -1.2,-0.6 -1.2,-1.2 z"
     class="st0"
     inkscape:connector-curvature="0"
     style="fill:#454b55" /><path
     id="path86"
     d="m 284.4,31.1 c 0.2,-0.6 0.5,-0.9 0.9,-1.1 0.7,0.7 1.7,1.3 3,1.3 1.8,0 2.7,-0.9 2.7,-2.1 0,-0.9 -0.4,-1.7 -2.7,-2.2 -1.8,-0.4 -3.6,-1.2 -3.6,-3.5 0,-1.8 1.5,-3.2 3.8,-3.2 1.9,0 3,0.6 3.8,1.2 0,0.5 -0.4,1 -0.8,1.2 -0.8,-0.6 -1.6,-1 -3,-1 -1.4,0 -2.3,0.8 -2.3,1.7 0,1 0.5,1.5 2.4,2 2.4,0.6 3.9,1.5 3.9,3.7 0,2.2 -1.6,3.5 -4.2,3.5 -2,0 -3.3,-0.8 -3.9,-1.5 z"
     class="st0"
     inkscape:connector-curvature="0"
     style="fill:#454b55" /><path
     id="path88"
     d="m 294.4,31.4 c 0,-0.6 0.5,-1.2 1.2,-1.2 0.6,0 1.2,0.5 1.2,1.2 0,0.6 -0.5,1.2 -1.2,1.2 -0.7,0 -1.2,-0.6 -1.2,-1.2 z"
     class="st0"
     inkscape:connector-curvature="0"
     style="fill:#454b55" /><path
     id="path90"
     d="m 308.4,32.2 c -0.3,0.1 -0.5,0.2 -0.9,0.2 -0.2,0 -0.5,0 -0.7,-0.1 L 305.6,29 h -4.9 l -1.2,3.3 c -0.2,0.1 -0.5,0.1 -0.7,0.1 -0.3,0 -0.6,-0.1 -0.9,-0.2 l 4.4,-11.7 c 0.3,-0.1 0.5,-0.1 0.8,-0.1 0.3,0 0.5,0 0.8,0.1 z m -3.3,-4.5 -1.7,-4.6 -0.3,-1 -0.3,1 -1.6,4.6 z"
     class="st0"
     inkscape:connector-curvature="0"
     style="fill:#454b55" /><path
     id="path92"
     d="m 309.7,31.4 c 0,-0.6 0.5,-1.2 1.2,-1.2 0.6,0 1.2,0.5 1.2,1.2 0,0.6 -0.5,1.2 -1.2,1.2 -0.7,0 -1.2,-0.6 -1.2,-1.2 z"
     class="st0"
     inkscape:connector-curvature="0"
     style="fill:#454b55" /><path
     id="path94"
     d="m 313.8,34.3 c 1,-2.1 1.6,-4.5 1.6,-7.4 0,-2.9 -0.6,-5.3 -1.6,-7.4 0.1,-0.4 0.8,-0.6 1.2,-0.5 1.4,2.4 2.2,4.9 2.2,7.9 0,2.9 -0.7,5.4 -2.2,7.9 -0.4,0.1 -1.1,-0.1 -1.2,-0.5 z"
     class="st0"
     inkscape:connector-curvature="0"
     style="fill:#454b55" /></g>
</g>
<g
   id="g112">
	<circle
   class="st1"
   cx="38.400002"
   cy="38.200001"
   r="37.900002"
   id="circle98"
   style="fill:#407ec9" />
	<g
   id="g110">
		<path
   class="st2"
   d="M 44.7,15.4 C 44.6,14 44.6,12.5 44.6,11.1 V 11 h -0.1 c -1.8,0.1 -2.7,0.6 -3.2,1.9 -0.5,1.3 -0.5,3.3 0.1,5.4 0.3,1.1 0.3,1.5 0.3,2.3 0,1.2 -0.5,1.6 -0.7,1.7 -0.2,0.1 -0.4,0.1 -0.5,0 0,-0.1 0,-0.3 0,-0.4 0.1,-1 0.2,-1.9 -0.1,-3.1 -0.3,-0.9 -0.6,-1.8 -0.9,-3.2 -0.4,-1.7 0.8,-3.9 1.4,-4.8 L 41,10.6 h -3.5 v 0.1 c 0.2,1.6 0.3,3.1 0.2,4.5 -0.1,0.4 -0.1,0.7 -0.2,1.1 -0.1,1 -0.3,1.9 -0.6,2.5 -0.3,1 -0.3,2.5 -0.2,3.5 -0.6,-0.1 -1,-0.2 -1.2,-0.5 -0.2,-0.2 -0.2,-0.4 -0.2,-0.7 v 0 0 c -0.2,-1.4 0,-2.4 0.3,-3.5 0.1,-0.6 0.3,-1.2 0.4,-2 v -0.1 c 0,-0.7 -0.1,-2.3 -0.5,-3.1 -0.5,-1 -1.4,-1.1 -2.2,-1.2 -0.3,0 -0.5,-0.1 -0.7,-0.1 L 32.4,11 v 0.2 c 0,1.3 -0.1,2.7 -0.2,4.1 -0.2,2.1 -0.3,4.3 -0.2,6.3 0.1,1.4 1.2,2.1 2.3,2.2 h 0.2 c 0.8,0 1.6,0 2.1,0.4 0.8,0.5 0.9,0.8 1,1.1 0.1,0.3 0.2,0.6 0.7,1.1 l 0.1,0.1 0.1,-0.1 c 0.6,-0.4 1.1,-1.1 1.4,-1.7 0.1,-0.2 0.2,-0.4 0.3,-0.5 0.3,-0.2 0.9,-0.2 1.5,-0.3 0.4,0 0.8,0 1.1,-0.1 h 0.1 c 0.5,-0.1 1.7,-0.5 1.8,-1.4 0.2,-2.2 0.1,-4.6 0,-7 z"
   id="path100"
   inkscape:connector-curvature="0"
   style="fill:#ffffff" />
		<path
   class="st2"
   d="m 54,25.9 c -3.1,-0.1 -5.8,-0.3 -8.7,-0.4 -1,-0.1 -2,-0.1 -3,-0.2 -1.5,-0.1 -3.1,0.8 -4,2.1 -0.8,-1.1 -1.9,-2.1 -3.9,-2.1 h -0.1 c -0.6,0.1 -1.2,0.1 -1.9,0.2 -3.2,0.3 -6.5,0.6 -9.7,0.5 h -0.1 v 0.1 c 0,0.7 0,1.3 0,1.9 0,0.3 0,0.7 0,1 v 0.1 h 0.1 c 1.3,0 2.9,-0.3 4.6,-0.5 4.9,-0.7 10,-1.4 10.5,2.1 v 0.1 h 0.9 v -0.1 c 0.5,-2.1 2.4,-2.9 6.3,-2.3 2.1,0.3 4.5,0.5 6.6,0.6 0.8,0 1.6,0.1 2.2,0.1 h 0.1 v -3.2 z"
   id="path102"
   inkscape:connector-curvature="0"
   style="fill:#ffffff" />
		<path
   class="st2"
   d="M 42.4,32.7 H 54.1 V 29.9 H 40.9 L 40.8,30 c -0.4,1 -0.9,2.1 -2.5,2.1 v 0 c -1.6,0 -2.1,-1.1 -2.4,-2.2 V 29.8 H 22.6 v 2.8 h 11.6 c 0.6,1 1.5,1.8 2.6,2.2 L 36.4,57.6 H 34 L 34.4,34.3 V 34.2 H 22.7 v 2.9 h 9.1 l -1.2,23.3 v 0.1 H 46 L 44.8,37.1 H 54 V 34.2 H 42.2 l 0.4,23.4 H 40.2 L 39.9,34.8 c 1,-0.2 1.9,-0.9 2.5,-2.1 z"
   id="path104"
   inkscape:connector-curvature="0"
   style="fill:#ffffff" />
		<path
   class="st2"
   d="M 28.6,48.6 C 28.3,47.8 28.1,47 28,46.2 c -0.3,-2.3 0,-3.9 0.7,-4.7 0.5,-0.6 0.5,-1.7 0.4,-2.3 V 39 L 29,39.1 c -2.3,2.2 -4.6,4.9 -4.6,8.2 0,1.6 0.7,3 1.3,4.3 0.6,1.3 1.2,2.4 1.2,3.7 0,1.1 -0.8,2.5 -1.4,3.1 0.2,-1.6 -0.8,-3.5 -2,-5.4 -0.9,-1.5 -0.3,-3.6 0.1,-5.1 0.1,-0.3 0.2,-0.6 0.2,-0.9 l 0.1,-0.4 -0.3,0.4 c -1.4,1.6 -3.3,3.8 -3.3,6.8 0,1.8 1,3.2 1.8,4.4 0.6,0.8 1.1,1.6 1.3,2.4 v 0.1 h 0.1 c 0.4,0 0.9,0 1.4,0 0.4,0 0.7,0 1.1,0 v 0 0 c 2,-2 3,-4.3 3.2,-7.2 0.3,-2 -0.1,-3.5 -0.6,-4.9 z"
   id="path106"
   inkscape:connector-curvature="0"
   style="fill:#ffffff" />
		<path
   class="st2"
   d="m 53.2,47.6 c -0.1,-0.2 -0.3,-0.3 -0.4,-0.5 l -0.3,-0.3 0.1,0.4 c 0.1,0.3 0.2,0.7 0.4,1.2 0.5,1.4 1.1,3.2 0.2,4.5 L 53,53.2 c -1.2,2 -2.4,3.8 -2,5.4 -0.2,-0.1 -0.4,-0.3 -0.6,-0.6 -0.6,-0.8 -1,-2.2 -0.8,-3.4 0.2,-1 0.7,-2 1.2,-2.9 0.7,-1.3 1.4,-2.7 1.4,-4.4 0,-3.3 -2.3,-6 -4.6,-8.2 L 47.5,39 v 0.2 c -0.1,0.6 -0.1,1.7 0.4,2.3 0.7,0.9 1,2.5 0.7,4.8 -0.1,0.8 -0.3,1.6 -0.6,2.4 -0.4,1.4 -0.9,2.9 -0.7,4.9 0.2,2.9 1.3,5.2 3.3,7.2 v 0 0 c 0.3,0 0.7,0 1,0 0.5,0 0.9,0 1.4,0 h 0.1 v -0.1 c 0.2,-0.8 0.8,-1.6 1.3,-2.4 0.9,-1.2 1.8,-2.6 1.8,-4.4 0,-2.9 -1.7,-4.8 -3,-6.3 z"
   id="path108"
   inkscape:connector-curvature="0"
   style="fill:#ffffff" />
	</g>
</g>
<text
   xml:space="preserve"
   style="font-style:normal;font-weight:normal;font-size:40px;line-height:1.25;font-family:sans-serif;letter-spacing:0px;word-spacing:0px;fill:#000000;fill-opacity:1;stroke:none"
   x="108.3455"
   y="46.226326"
   id="text3803"><tspan
     sodipodi:role="line"
     x="108.3455"
     y="46.226326"
     style="font-style:normal;font-variant:normal;font-weight:bold;font-stretch:normal;font-size:16px;line-height:0px;font-family:sans-serif;-inkscape-font-specification:'sans-serif Bold';fill:#4d4d4d"
     id="tspan3805">Daily</tspan><tspan
     sodipodi:role="line"
     x="108.3455"
     y="96.226326"
     style="font-style:normal;font-variant:normal;font-weight:bold;font-stretch:normal;font-size:16px;line-height:0px;font-family:sans-serif;-inkscape-font-specification:'sans-serif Bold'"
     id="tspan3809" /></text>
<text
   xml:space="preserve"
   style="font-style:normal;font-weight:normal;font-size:40px;line-height:1.25;font-family:sans-serif;letter-spacing:0px;word-spacing:0px;fill:#000000;fill-opacity:1;stroke:none"
   x="83.892616"
   y="60.528191"
   id="text3813"><tspan
     sodipodi:role="line"
     id="tspan3811"
     x="83.892616"
     y="60.528191"
     style="font-style:normal;font-variant:normal;font-weight:bold;font-stretch:normal;font-size:16px;font-family:sans-serif;-inkscape-font-specification:'sans-serif Bold';fill:#4d4d4d">Lectionary</tspan></text>
</svg>